<svg width="900" height="900" viewBox="0 0 900 900" fill="none" xmlns="http://www.w3.org/2000/svg">
<path d="M662.557 181.916C679.327 160.765 710.331 157.019 729.226 176.296C774.24 222.218 807.418 278.731 825.49 340.967C848.124 418.915 845.939 501.976 819.238 578.626C792.536 655.276 742.642 721.717 676.476 768.731C610.311 815.745 531.154 841.003 449.986 841C368.818 840.997 289.663 815.734 223.501 768.715C157.338 721.695 107.449 655.251 80.7531 578.599C54.0571 501.947 51.8779 418.886 74.5178 340.94C92.594 278.705 125.776 222.194 170.794 176.276C189.69 157 220.694 160.748 237.462 181.901V181.901C254.231 203.053 250.303 233.562 232.225 253.608C202.706 286.341 180.8 325.474 168.388 368.205C151.408 426.665 153.043 488.96 173.065 546.449C193.087 603.938 230.504 653.772 280.125 689.036C329.747 724.3 389.113 743.248 449.989 743.25C510.865 743.252 570.233 724.309 619.857 689.048C669.481 653.787 706.902 603.957 726.928 546.469C746.954 488.982 748.593 426.686 731.618 368.225C719.209 325.494 697.306 286.359 667.789 253.623C649.713 233.576 645.787 203.067 662.557 181.916V181.916Z" fill="#7301E5"/>
<path d="M314.194 135.984C303.479 111.208 314.83 82.1157 340.748 74.5735C375.928 64.3359 412.376 59.0935 449.015 59.0011C476.008 58.933 495.098 83.6474 491.8 110.438V110.438C488.502 137.229 464.013 155.844 437.047 157.036C417.761 157.889 398.605 160.644 379.86 165.261C353.651 171.717 324.909 160.759 314.194 135.984V135.984Z" fill="#7301E5"/>
<rect x="401" y="59" width="98" height="600" rx="49" fill="#7301E5"/>
</svg>
